<?xml version="1.0" encoding="UTF-8"?>
<svg id="Layer_2" data-name="Layer 2" xmlns="http://www.w3.org/2000/svg" viewBox="0 0 1080 1080">
  <defs>
    <style>
      .cls-1 {
        fill: #fff;
      }
    </style>
  </defs>
  <path class="cls-1" d="M152.69,519.95V224.93h220.33v295.02h-55.08v-239.94h-110.17v239.94h-55.08Z"/>
  <path class="cls-1" d="M429.83,519.95V224.93h55.08v239.94h110.17V224.93h55.08v295.02h-220.33Z"/>
  <path class="cls-1" d="M706.3,412.55v-55.08h220.33v55.08h-220.33Z"/>
  <path class="cls-1" d="M152.69,855.07v-279.93h220.33v279.93h-55.08v-224.85h-27.54v224.85h-55.08v-224.85h-27.54v224.85h-55.08Z"/>
  <path class="cls-1" d="M429.83,575.04h222.02v172.29h-165.46v55.4h165.46v51.8h-222.02v-279.5Zm56.57,127.36h108.9v-78.2h-108.9v78.2Z"/>
  <path class="cls-1" d="M706.3,855.07v-279.93h220.33v55.08h-165.25v224.85h-55.08Z"/>
</svg>